<!-- Generated by IcoMoon.io -->
<svg version="1.1" xmlns="http://www.w3.org/2000/svg" width="1024" height="1024" viewBox="0 0 1024 1024">
<title></title>
<g id="icomoon-ignore">
</g>
<path fill="#f4731c" d="M618.88 744.107c54.4-12.373 106.368-33.877 153.6-63.573 35.584-23.808 45.141-71.936 21.333-107.52-22.869-34.219-68.437-44.544-103.893-23.595-108.8 68.053-247.040 68.053-355.84 0-36.139-22.784-83.84-11.947-106.667 24.107 0 0.085 0 0.171-0.085 0.213-22.784 36.139-11.947 83.883 24.192 106.667l0.085 0.085c47.147 29.653 99.072 51.2 153.429 63.488l-147.84 147.84c-30.165 29.653-30.72 78.080-1.195 108.245l1.28 1.28c14.677 15.104 34.56 22.613 54.357 22.613 19.84 0 39.68-7.509 54.4-22.613l145.963-145.237 145.237 145.323c30.72 29.653 79.787 28.843 109.483-1.92 28.928-29.995 28.928-77.568 0-107.52zM512 528.555c145.92-0.171 264.107-118.357 264.32-264.235 0-145.707-118.613-264.32-264.32-264.32s-264.32 118.613-264.32 264.405c0.213 145.92 118.443 264.107 264.32 264.149zM512 154.923c60.416 0.085 109.355 49.067 109.397 109.44 0 60.416-48.981 109.355-109.397 109.44-60.373-0.085-109.312-48.981-109.44-109.397 0.085-60.459 49.067-109.397 109.44-109.483z"></path>
</svg>
