<!-- Generated by IcoMoon.io -->
<svg version="1.1" xmlns="http://www.w3.org/2000/svg" width="490" height="448" viewBox="0 0 490 448">
<title></title>
<g id="icomoon-ignore">
</g>
<path fill="#000" d="M479.25 130c3.75 10.25-8 34.25-37.5 73.5-48.5 64.5-53.75 58.5-13.75 95.75 38.5 35.75 46.5 53 47.75 55.25 0 0 16 28-17.75 28.25l-64 1c-13.75 2.75-32-9.75-32-9.75-24-16.5-46.5-59.25-64-53.75 0 0-18 5.75-17.5 44.25 0.25 8.25-3.75 12.75-3.75 12.75s-4.5 4.75-13.25 5.5h-28.75c-63.25 4-119-54.25-119-54.25s-61-63-114.5-188.75c-3.5-8.25 0.25-12.25 0.25-12.25s3.75-4.75 14.25-4.75l68.5-0.5c6.5 1 11 4.5 11 4.5s4 2.75 6 8c11.25 28 25.75 53.5 25.75 53.5 25 51.5 42 60.25 51.75 55 0 0 12.75-7.75 10-70-1-22.5-7.25-32.75-7.25-32.75-5.75-7.75-16.5-10-21.25-10.75-3.75-0.5 2.5-9.5 10.75-13.5 12.25-6 34-6.25 59.75-6 20.25 0.25 26 1.5 33.75 3.25 23.75 5.75 15.75 27.75 15.75 80.75 0 17-3.25 40.75 9 48.5 5.25 3.5 18.25 0.5 50.25-54 0 0 15-26 26.75-56.25 2-5.5 6.25-7.75 6.25-7.75s4-2.25 9.5-1.5l72-0.5c21.75-2.75 25.25 7.25 25.25 7.25z"></path>
</svg>
